<?xml version="1.0"?>
<svg xmlns="http://www.w3.org/2000/svg" viewBox="0 0 512 512" width="512" height="512"><g id="outline"><path d="M344,273.992H320a23.865,23.865,0,0,0-5.14.585A7.919,7.919,0,0,0,312,274H280V222.641A36.684,36.684,0,0,0,243.359,186H232a8,8,0,0,0-8,8v28.562a62.323,62.323,0,0,1-8.859,32.032l-12.616,20.979-36.048,14.419H120a8,8,0,0,0-8,8v104a8,8,0,0,0,8,8h47.961c.014,0,.025.008.039.008h31.016l31.046,7.758A7.71,7.71,0,0,0,232,418h72a7.924,7.924,0,0,0,2.89-.583,23.916,23.916,0,0,0,5.11.575h24a24.026,24.026,0,0,0,24-24,23.708,23.708,0,0,0-3.211-11.766,23.767,23.767,0,0,0,4.969-36.234,23.627,23.627,0,0,0,0-32,23.9,23.9,0,0,0-17.758-40Zm-184,120H128v-88h32Zm142.242-48a23.438,23.438,0,0,0-3.031,27.767A23.948,23.948,0,0,0,288,393.992,23.7,23.7,0,0,0,289.477,402H232.984l-31.046-7.758A7.71,7.71,0,0,0,200,394H176V303.414l34.969-13.984c.105-.042.17-.133.273-.179a7.9,7.9,0,0,0,2.342-1.534c.061-.06.1-.134.158-.2a7.967,7.967,0,0,0,1.117-1.4l14.008-23.3A78.464,78.464,0,0,0,240,222.562V202h3.359A20.662,20.662,0,0,1,264,222.641v64.273a55.368,55.368,0,0,1-34.969,51.648,8,8,0,0,0,5.938,14.86A71.156,71.156,0,0,0,279.769,290h17.7a23.244,23.244,0,0,0,4.77,23.992,23.627,23.627,0,0,0,0,32Zm33.758,56H312a8,8,0,0,1,0-16h24a8,8,0,0,1,0,16Zm8-32H320a8,8,0,0,1,0-16h24a8,8,0,0,1,0,16Zm0-32H320a8,8,0,0,1,0-16h24a8,8,0,0,1,0,16Zm0-32H320a8,8,0,0,1,0-16h24a8,8,0,0,1,0,16Z"/><path d="M206.609,113.969l15.282,11.093-5.836,17.954a16,16,0,0,0,24.625,17.89l15.273-11.1,15.281,11.1a15.756,15.756,0,0,0,18.805.008,15.767,15.767,0,0,0,5.813-17.891l-5.836-17.961L305.3,113.969a16.006,16.006,0,0,0-9.406-28.953l-18.883.007-5.836-17.961v-.007a16,16,0,0,0-30.438.007L234.9,85.016H216.016a16.008,16.008,0,0,0-9.407,28.953ZM234.9,101.016a15.965,15.965,0,0,0,15.219-11.055l5.8-18.055a.843.843,0,0,1,.039.1l5.836,17.953a15.967,15.967,0,0,0,15.219,11.055h18.883L280.6,112.125A15.964,15.964,0,0,0,274.8,130l5.844,17.969-15.289-11.11a15.984,15.984,0,0,0-18.8.008l-15.274,11.094L237.109,130a15.968,15.968,0,0,0-5.812-17.891l-15.281-11.093Z"/><path d="M136.047,205.805l15.273,11.109a16,16,0,0,0,24.625-17.891l-5.836-17.961,15.282-11.1a16,16,0,0,0-9.407-28.945l-18.882.007-5.836-17.961v-.007a16,16,0,0,0-30.438.007l-5.836,17.954H96.109A16.006,16.006,0,0,0,86.7,169.969l15.281,11.093-5.836,17.954a15.774,15.774,0,0,0,5.813,17.9,15.756,15.756,0,0,0,18.805-.008Zm-24.656-37.7L96.109,157.016h18.883a15.967,15.967,0,0,0,15.219-11.055l5.8-18.055s.015.032.039.1l5.836,17.953A15.965,15.965,0,0,0,157.1,157.016h18.882l-15.281,11.1A15.953,15.953,0,0,0,154.891,186l5.836,17.969-15.282-11.11a15.983,15.983,0,0,0-18.8.008l-15.274,11.094L117.2,186A15.988,15.988,0,0,0,111.391,168.109Z"/><path d="M391.266,123.062v-.007a16,16,0,0,0-30.438.007l-5.836,17.954H336.109a16.006,16.006,0,0,0-9.406,28.953l15.281,11.093-5.836,17.954a15.774,15.774,0,0,0,5.813,17.9,15.756,15.756,0,0,0,18.805-.008l15.281-11.1,15.273,11.109a16,16,0,0,0,24.625-17.891l-5.836-17.961,15.282-11.1a16,16,0,0,0-9.407-28.945l-18.882.007Zm9.437,45.055A15.953,15.953,0,0,0,394.891,186l5.836,17.969-15.282-11.11a15.983,15.983,0,0,0-18.8.008l-15.274,11.094L357.2,186a15.988,15.988,0,0,0-5.812-17.891l-15.282-11.093h18.883a15.967,15.967,0,0,0,15.219-11.055l5.8-18.055s.015.032.039.1l5.836,17.953A15.965,15.965,0,0,0,397.1,157.016h18.882Z"/><path d="M256,16C123.664,16,16,123.664,16,256S123.664,496,256,496,496,388.336,496,256,388.336,16,256,16Zm0,464C132.484,480,32,379.516,32,256S132.484,32,256,32,480,132.484,480,256,379.516,480,256,480Z"/><path d="M432,256a175.64,175.64,0,0,1-25.82,91.82,8,8,0,1,0,13.64,8.36A191.6,191.6,0,0,0,448,256a193.977,193.977,0,0,0-1.625-25.031,8,8,0,1,0-15.859,2.062A179.013,179.013,0,0,1,432,256Z"/><path d="M80,256a179.013,179.013,0,0,1,1.484-22.969,8,8,0,1,0-15.859-2.062A193.977,193.977,0,0,0,64,256a190.874,190.874,0,0,0,15.258,75.133,8,8,0,0,0,14.719-6.266A175,175,0,0,1,80,256Z"/></g></svg>
